{"title":"Harry Potter ja surma vägised Osa 2 2011 EESTI SUB","uid":8996571,"size":2297377396,"categoryP":"video","categoryS":"movies","magnet":"?xt=urn:btih:ac7d2ede3e3ec099284aca4366efaace754b70a8&amp;dn=Harry+Potter+ja+surma+v%26auml%3Bgised+Osa+2+2011+EESTI+SUB&amp;tr=udp%3A%2F%2Ftracker.openbittorrent.com%3A80&amp;tr=udp%3A%2F%2Fopen.demonii.com%3A1337&amp;tr=udp%3A%2F%2Ftracker.coppersurfer.tk%3A6969&amp;tr=udp%3A%2F%2Fexodus.desync.com%3A6969","seeders":0,"leechers":1,"uploader":"immri","files":1,"time":1380876141,"description":"Format                                   : AVI\nFormat/Info                              : Audio Video Interleave\nFile size                                : 2.14 GiB\nDuration                                 : 2h 10mn\nOverall bit rate                         : 2 348 Kbps\n\nVideo\nID                                       : 0\nFormat                                   : MPEG-4 Visual\nFormat settings, BVOP                    : 1\nFormat settings, QPel                    : No\nFormat settings, GMC                     : No warppoints\nFormat settings, Matrix                  : Default (H.263)\nMuxing mode                              : Packed bitstream\nCodec ID                                 : DX50\nCodec ID/Hint                            : DivX 5\nDuration                                 : 2h 10mn\nBit rate                                 : 2 147 Kbps\nWidth                                    : 720 pixels\nHeight                                   : 300 pixels\nDisplay aspect ratio                     : 2.40:1\nFrame rate                               : 24.000 fps\nColor space                              : YUV\nChroma subsampling                       : 4:2:0\nBit depth                                : 8 bits\nScan type                                : Progressive\nCompression mode                         : Lossy\nBits/(Pixel*Frame)                       : 0.414\nStream size                              : 1.96 GiB (91%)\nTitle                                    : Video \nWriting library                          : DivX 2682\n\nAudio\nID                                       : 1\nFormat                                   : MPEG Audio\nFormat version                           : Version 1\nFormat profile                           : Layer 3\nMode                                     : Joint stereo\nMode extension                           : MS Stereo\nCodec ID                                 : 55\nCodec ID/Hint                            : MP3\nDuration                                 : 2h 10mn\nBit rate mode                            : Constant\nBit rate                                 : 192 Kbps\nChannel(s)                               : 2 channels\nSampling rate                            : 48.0 KHz\nCompression mode                         : Lossy\nStream size                              : 179 MiB (8%)\nAlignment                                : Split accross interleaves\nInterleave, duration                     : 42 ms (1.00 video frame)\nInterleave, preload duration             : 500 ms\nTitle                                    : Audio - en-US01\n\n","torrent":{"xt":"urn:btih:ac7d2ede3e3ec099284aca4366efaace754b70a8","amp;dn":"Harry+Potter+ja+surma+v%26auml%3Bgised+Osa+2+2011+EESTI+SUB","amp;tr":["udp%3A%2F%2Ftracker.openbittorrent.com%3A80","udp%3A%2F%2Fopen.demonii.com%3A1337","udp%3A%2F%2Ftracker.coppersurfer.tk%3A6969","udp%3A%2F%2Fexodus.desync.com%3A6969"],"infoHash":"ac7d2ede3e3ec099284aca4366efaace754b70a8","infoHashBuffer":{"type":"Buffer","data":[172,125,46,222,62,62,192,153,40,74,202,67,102,239,170,206,117,75,112,168]},"announce":[],"urlList":[]}}